<?xml version="1.0" encoding="UTF-8"?>
<svg version="1.1" xmlns="http://www.w3.org/2000/svg" width="512" height="512">
<path d="M0 0 C1.11184284 -0.00782324 2.22368568 -0.01564648 3.36922073 -0.02370679 C4.59575741 -0.01701463 5.82229408 -0.01032246 7.08599854 -0.00342751 C8.38501476 -0.00810748 9.68403099 -0.01278745 11.02241135 -0.01760924 C14.63562047 -0.03017183 18.24859291 -0.02392516 21.86180305 -0.01465058 C25.7555212 -0.00788184 29.64919775 -0.01833048 33.54290771 -0.02659035 C41.17365614 -0.0399532 48.8043162 -0.03703862 56.43506813 -0.02835242 C62.6349218 -0.0215863 68.83475064 -0.02065451 75.03460693 -0.02392387 C75.91589917 -0.02438357 76.79719141 -0.02484327 77.70518947 -0.0253169 C79.49533368 -0.02627605 81.28547788 -0.02724868 83.07562208 -0.02823468 C99.87477823 -0.03679604 116.67388532 -0.02694274 133.47303343 -0.01083358 C147.89775731 0.00257028 162.32240877 0.0002424 176.74713135 -0.01358986 C193.48482583 -0.0296325 210.22247728 -0.035972 226.96017838 -0.02675307 C228.74385833 -0.02579739 230.52753829 -0.02485428 232.31121826 -0.02392387 C233.18889823 -0.02346105 234.06657819 -0.02299822 234.97085452 -0.02252137 C241.16561841 -0.01992753 247.36035507 -0.02431095 253.55511475 -0.03136253 C261.10109186 -0.03976314 268.64697532 -0.03752784 276.19294167 -0.0215203 C280.04544354 -0.01361809 283.89778908 -0.01057896 287.75028992 -0.02046776 C291.92027253 -0.03100986 296.08985795 -0.01845067 300.25982666 -0.00342751 C302.09963167 -0.01346575 302.09963167 -0.01346575 303.97660446 -0.02370679 C305.64436872 -0.01197193 305.64436872 -0.01197193 307.3458252 0 C308.30906834 0.00048706 309.27231148 0.00097411 310.2647438 0.00147593 C313.0989733 0.44405491 313.99684249 1.08508043 315.6729126 3.37752342 C316.03367615 5.7883358 316.03367615 5.7883358 316.01348877 8.67513084 C316.01326218 9.75602486 316.01303558 10.83691887 316.01280212 11.95056725 C315.99731827 13.11626747 315.98183441 14.2819677 315.96588135 15.48299217 C315.96163651 16.67733376 315.95739166 17.87167534 315.95301819 19.10220909 C315.93620219 22.92337486 315.89854353 26.74401659 315.8604126 30.56502342 C315.84536959 33.15290644 315.83168052 35.74079771 315.81939697 38.3286953 C315.78628905 44.678484 315.73606021 51.02796628 315.6729126 57.37752342 C316.27736584 57.37199266 316.88181908 57.36646191 317.50458908 57.36076355 C332.21009657 57.22827601 346.91556881 57.12897847 361.62153244 57.06665039 C368.73327818 57.03570783 375.84462563 56.99352084 382.95611572 56.9248867 C389.81609125 56.85871152 396.67565227 56.82384072 403.53592682 56.80825996 C406.15630873 56.79715323 408.77666737 56.77546482 411.39687347 56.74314308 C415.06067817 56.69973574 418.72276033 56.69358319 422.38677979 56.69637108 C423.47578583 56.67479942 424.56479187 56.65322777 425.6867981 56.63100243 C428.47673605 56.65405139 430.95980808 56.72795378 433.6729126 57.37752342 C436.26725769 60.17325401 436.26725769 60.17325401 437.6729126 63.37752342 C438.01131668 64.05964394 438.34972076 64.74176445 438.69837952 65.44455528 C439.070196 66.37635864 439.070196 66.37635864 439.44952393 67.32698631 C439.7417131 68.04934975 440.03390228 68.77171318 440.33494568 69.51596642 C440.63854507 70.28625679 440.94214447 71.05654716 441.25494385 71.85017967 C441.58605667 72.67384529 441.91716949 73.49751091 442.25831604 74.34613609 C443.34032452 77.04161935 444.41285263 79.74076829 445.4854126 82.44002342 C446.23910267 84.32246708 446.99350635 86.20462518 447.74859619 88.0865078 C449.29810316 91.94955583 450.84456999 95.81380101 452.38922119 99.67879295 C454.53545193 105.04249562 456.70287938 110.3973652 458.87994385 115.74861717 C459.21337296 116.56846596 459.54680206 117.38831474 459.89033508 118.23300743 C461.16097791 121.35641949 462.43211644 124.47962879 463.70431519 127.60240746 C464.14086929 128.67457008 464.14086929 128.67457008 464.58624268 129.76839256 C464.83739334 130.38485146 465.08854401 131.00131035 465.3473053 131.63644981 C465.91511426 133.03821322 466.47894164 134.44161839 467.03393745 135.84850407 C468.43488021 139.38168502 469.88152087 142.86351954 471.50524902 146.30054283 C477.2387638 158.89552845 477.64348376 170.37687376 477.4619751 184.05330467 C477.456518 186.28004029 477.45375093 188.50678394 477.45352173 190.73352623 C477.44585577 195.3603039 477.41519959 199.98611404 477.36578369 204.61263084 C477.30305049 210.53968836 477.28492648 216.46583342 477.28199196 222.39319134 C477.27729574 226.97343394 477.2565264 231.55348327 477.23011398 236.13364792 C477.21807415 238.3205026 477.20935981 240.50737825 477.2040596 242.69425964 C477.19285236 245.73788852 477.16172655 248.78064794 477.12457275 251.82405663 C477.12436127 252.72222603 477.12414978 253.62039543 477.12393188 254.54578209 C477.04405261 259.20550041 476.9305746 262.73593426 473.6729126 266.37752342 C471.71766663 266.97879601 471.71766663 266.97879601 469.47686768 266.94515038 C468.63622269 266.94477272 467.7955777 266.94439507 466.92945862 266.94400597 C466.02624374 266.91819954 465.12302887 266.89239311 464.19244385 266.86580467 C463.2644548 266.85872993 462.33646576 266.8516552 461.38035583 266.84436607 C458.41455679 266.81636285 455.45064152 266.75361375 452.4854126 266.69002342 C450.47567423 266.6649482 448.46590628 266.64213368 446.45611572 266.62166405 C441.52765483 266.56651669 436.60060314 266.48020339 431.6729126 266.37752342 C431.49187988 267.17706444 431.31084717 267.97660545 431.12432861 268.80037498 C428.11236937 281.55258277 422.83422158 290.15249287 411.6729126 297.37752342 C401.29968268 303.03265986 388.90434866 304.31899465 377.4229126 301.31502342 C365.86949906 297.20116236 357.09979269 289.82546191 351.7979126 278.81502342 C349.81680711 274.40017577 349.39918349 271.46141965 348.6729126 266.37752342 C309.7329126 266.37752342 270.7929126 266.37752342 230.6729126 266.37752342 C230.0129126 269.67752342 229.3529126 272.97752342 228.6729126 276.37752342 C223.67122123 288.15435904 215.79083055 295.51347465 204.15338135 300.46736717 C194.28094892 304.08985025 181.25202019 303.81082942 171.6729126 299.37752342 C160.82809917 293.8709891 153.63744353 286.2199469 149.36431885 274.79939842 C148.57828332 272.04605365 148.14364404 269.20191206 147.6729126 266.37752342 C139.4229126 266.37752342 131.1729126 266.37752342 122.6729126 266.37752342 C122.3429126 269.01752342 122.0129126 271.65752342 121.6729126 274.37752342 C117.64205216 285.53561461 110.35149134 294.13747735 99.6729126 299.37752342 C89.99272813 303.7108912 77.77587095 304.12284582 67.7354126 300.75252342 C55.00334254 295.28230769 46.66546995 287.05638315 41.4854126 274.17439842 C40.67858155 271.39703768 40.610292 269.24482432 40.6729126 266.37752342 C39.81846809 266.38751617 39.81846809 266.38751617 38.94676208 266.3977108 C33.02602779 266.46400461 27.10539866 266.5092991 21.18438721 266.54231834 C18.97373168 266.55741867 16.76310616 266.57790051 14.55255127 266.60384178 C11.37775267 266.64016997 8.20334963 266.65723726 5.02838135 266.67049217 C4.03767136 266.68597603 3.04696136 266.70145988 2.02622986 266.71741295 C1.10550186 266.71763954 0.18477386 266.71786613 -0.76385498 266.71809959 C-1.97963982 266.72809235 -1.97963982 266.72809235 -3.21998596 266.73828697 C-5.91033289 266.2776641 -6.64419114 265.49795644 -8.3270874 263.37752342 C-8.70313489 261.34125233 -8.70313489 261.34125233 -8.70461082 258.95624352 C-8.71243407 258.04643762 -8.72025731 257.13663172 -8.72831762 256.19925594 C-8.72162545 255.19839427 -8.71493329 254.1975326 -8.70803833 253.16634178 C-8.7127183 252.10417159 -8.71739827 251.0420014 -8.72222006 249.94764423 C-8.73423362 246.37076006 -8.72468784 242.79425453 -8.715271 239.21736717 C-8.71933386 236.66024615 -8.72467413 234.10312689 -8.73120117 231.54601097 C-8.74348871 225.3109255 -8.74165149 219.0759814 -8.73296325 212.84089398 C-8.72619534 207.77471543 -8.7252661 202.70856725 -8.7285347 197.64238548 C-8.7289944 196.9220642 -8.7294541 196.20174291 -8.72992773 195.45959371 C-8.73088688 193.9963955 -8.73185952 192.53319729 -8.7328455 191.0699991 C-8.74140554 177.34107585 -8.73155565 163.61221264 -8.7154444 149.88329923 C-8.70204065 138.09651316 -8.70436857 126.30981571 -8.71820068 114.52303123 C-8.73424568 100.84412138 -8.74058151 87.16526419 -8.73136389 73.48634624 C-8.73040822 72.02845129 -8.72946511 70.57055633 -8.7285347 69.11266136 C-8.72807187 68.39529979 -8.72760905 67.67793822 -8.72713219 66.93883842 C-8.72453905 61.8771987 -8.72892026 56.81559231 -8.73597336 51.75395775 C-8.74525288 44.9446852 -8.73867125 38.13560637 -8.72129059 31.32634163 C-8.71731108 28.821688 -8.71848462 26.31702032 -8.72507858 23.81237221 C-8.73322629 20.40428985 -8.72305435 16.99675231 -8.70803833 13.58870506 C-8.7147305 12.58784339 -8.72142266 11.58698172 -8.72831762 10.5557909 C-8.72049438 9.645985 -8.71267113 8.7361791 -8.70461082 7.79880333 C-8.70412377 7.01175042 -8.70363671 6.22469751 -8.70313489 5.41379452 C-7.77842488 0.40655393 -4.5642806 0.0023079 0 0 Z " fill="#729BC5" transform="translate(23.32708740234375,194.6224765777588)"/>
<path d="M0 0 C15.31605079 -0.14014214 30.632072 -0.24595712 45.94861984 -0.31087303 C53.06036558 -0.34181559 60.17171303 -0.38400258 67.28320312 -0.45263672 C74.14317866 -0.51881191 81.00273967 -0.5536827 87.86301422 -0.56926346 C90.48339613 -0.5803702 93.10375477 -0.60205861 95.72396088 -0.63438034 C99.38776557 -0.67778769 103.04984773 -0.68394023 106.71386719 -0.68115234 C107.80287323 -0.702724 108.89187927 -0.72429565 110.0138855 -0.746521 C112.80382345 -0.72347203 115.28689549 -0.64956964 118 0 C120.59434509 2.79573059 120.59434509 2.79573059 122 6 C122.33840408 6.68212051 122.67680817 7.36424103 123.02546692 8.06703186 C123.27334457 8.6882341 123.52122223 9.30943634 123.77661133 9.94946289 C124.2148951 11.03300804 124.2148951 11.03300804 124.66203308 12.13844299 C124.96563248 12.90873337 125.26923187 13.67902374 125.58203125 14.47265625 C125.91314407 15.29632187 126.2442569 16.11998749 126.58540344 16.96861267 C127.66741192 19.66409593 128.73994003 22.36324487 129.8125 25.0625 C130.56619008 26.94494366 131.32059376 28.82710175 132.07568359 30.70898438 C133.62519057 34.57203241 135.17165739 38.43627759 136.71630859 42.30126953 C138.86253934 47.6649722 141.02996679 53.01984177 143.20703125 58.37109375 C143.54046036 59.19094254 143.87388947 60.01079132 144.21742249 60.85548401 C145.48806532 63.97889607 146.75920385 67.10210537 148.03140259 70.22488403 C148.4679567 71.29704666 148.4679567 71.29704666 148.91333008 72.39086914 C149.16448074 73.00732803 149.41563141 73.62378693 149.6743927 74.25892639 C150.24220166 75.6606898 150.80602904 77.06409496 151.36102486 78.47098064 C152.76196761 82.0041616 154.20860828 85.48599612 155.83233643 88.92301941 C161.5658512 101.51800503 161.97057117 112.99935033 161.7890625 126.67578125 C161.7836054 128.90251687 161.78083833 131.12926052 161.78060913 133.35600281 C161.77294317 137.98278048 161.74228699 142.60859062 161.69287109 147.23510742 C161.63013789 153.16216494 161.61201388 159.08831 161.60907936 165.01566792 C161.60438314 169.59591052 161.58361381 174.17595984 161.55720139 178.7561245 C161.54516156 180.94297917 161.53644721 183.12985482 161.531147 185.31673622 C161.51993976 188.3603651 161.48881396 191.40312451 161.45166016 194.4465332 C161.45144867 195.34470261 161.45123718 196.24287201 161.45101929 197.16825867 C161.37114002 201.82797699 161.257662 205.35841084 158 209 C156.04475403 209.60127258 156.04475403 209.60127258 153.80395508 209.56762695 C152.96331009 209.5672493 152.1226651 209.56687164 151.25654602 209.56648254 C150.35333115 209.54067612 149.45011627 209.51486969 148.51953125 209.48828125 C147.12754768 209.47766914 147.12754768 209.47766914 145.70744324 209.46684265 C142.7416442 209.43883943 139.77772892 209.37609033 136.8125 209.3125 C134.80276163 209.28742478 132.79299368 209.26461026 130.78320312 209.24414062 C125.85474224 209.18899327 120.92769054 209.10267997 116 209 C115.81896729 209.79954102 115.63793457 210.59908203 115.45141602 211.42285156 C112.43945677 224.17505935 107.16130899 232.77496945 96 240 C85.62677008 245.65513644 73.23143606 246.94147123 61.75 243.9375 C50.19658646 239.82363894 41.42688009 232.44793848 36.125 221.4375 C34.14389451 217.02265235 33.72627089 214.08389623 33 209 C20.79 209 8.58 209 -4 209 C-2.515 207.02 -2.515 207.02 -1 205 C-0.70541307 202.17192867 -0.58383253 199.56414494 -0.60127258 196.73638916 C-0.59462576 195.89584323 -0.58797893 195.05529729 -0.58113068 194.18928027 C-0.56245609 191.3685773 -0.56510896 188.54829686 -0.56762695 185.72753906 C-0.55861252 183.70726419 -0.54828609 181.6869948 -0.53674316 179.66673279 C-0.50910967 174.17746095 -0.49988001 168.6882927 -0.49388909 163.1989603 C-0.48452195 157.46403949 -0.45831993 151.72919657 -0.43388367 145.99432373 C-0.39016926 135.13239517 -0.36165264 124.27048169 -0.33856028 113.40849185 C-0.3115351 101.0434143 -0.26762194 88.67841492 -0.22227156 76.31339312 C-0.1293545 50.87563775 -0.0577061 25.43785788 0 0 Z " fill="#EE524F" transform="translate(339,252)"/>
<path d="M0 0 C106.92 0 213.84 0 324 0 C324 28.05 324 56.1 324 85 C319.54379135 89.45620865 319.54379135 89.45620865 314.36195374 89.49768066 C313.61892502 89.48329956 312.8758963 89.46891846 312.11035156 89.45410156 C310.92441658 89.45497772 310.92441658 89.45497772 309.71452332 89.45587158 C307.10610767 89.45308899 304.49884053 89.42198983 301.890625 89.390625 C300.08030827 89.38316321 298.26998346 89.37746998 296.45965576 89.37347412 C291.69848265 89.35821288 286.93779884 89.31892691 282.17681885 89.2746582 C277.31716531 89.23371603 272.4574326 89.21546536 267.59765625 89.1953125 C258.06488937 89.15243309 248.5324854 89.08417585 239 89 C238.87198502 89.68335419 238.74397003 90.36670837 238.61207581 91.07077026 C238.43917526 91.96893463 238.26627472 92.867099 238.08813477 93.79248047 C237.91886978 94.68208466 237.7496048 95.57168884 237.57521057 96.48825073 C235.44774203 105.77818351 228.72874909 113.72540347 221 119 C209.72492463 125.11944389 197.2836724 127.24374171 184.6875 123.9375 C173.6483667 119.93001631 164.98943707 112.87449933 159.65625 102.34765625 C157.73768793 97.79107133 156.82719045 93.9631427 156 89 C147.75 89 139.5 89 131 89 C130.67 91.64 130.34 94.28 130 97 C125.96913956 108.15809118 118.67857874 116.75995393 108 122 C98.31981553 126.33336778 86.10295835 126.7453224 76.0625 123.375 C63.33042994 117.90478427 54.99255735 109.67885973 49.8125 96.796875 C49.00566895 94.01951426 48.9373794 91.86730089 49 89 C48.1455555 89.00999275 48.1455555 89.00999275 47.27384949 89.02018738 C41.35311519 89.08648119 35.43248607 89.13177567 29.51147461 89.16479492 C27.30081908 89.17989525 25.09019357 89.20037709 22.87963867 89.22631836 C19.70484007 89.26264655 16.53043703 89.27971384 13.35546875 89.29296875 C12.36475876 89.30845261 11.37404877 89.32393646 10.35331726 89.33988953 C9.43258926 89.34011612 8.51186127 89.34034271 7.56323242 89.34057617 C6.34744759 89.35056892 6.34744759 89.35056892 5.10710144 89.36076355 C3 89 3 89 0 86 C0 57.62 0 29.24 0 0 Z " fill="#729AC5" transform="translate(15,372)"/>
<path d="M0 0 C0.71904166 -0.00694553 1.43808333 -0.01389106 2.17891413 -0.02104706 C4.57106008 -0.03923872 6.96220544 -0.02907538 9.35438538 -0.01878357 C11.07641335 -0.02584605 12.79843512 -0.03459246 14.52044678 -0.04489136 C19.18581195 -0.06735838 23.85083745 -0.0644519 28.51623607 -0.05556989 C32.41533659 -0.05045312 36.31437367 -0.05775817 40.21346766 -0.06504196 C49.41381716 -0.08203248 58.61400076 -0.0784837 67.81434631 -0.06175232 C77.29674891 -0.04483067 86.77869117 -0.06066804 96.26104349 -0.0929752 C104.41159526 -0.11968979 112.5620039 -0.12694208 120.71259505 -0.11846012 C125.57651555 -0.1135365 130.4401591 -0.11571598 135.30404472 -0.13624763 C139.87857822 -0.15463418 144.45245072 -0.1486099 149.02694893 -0.12404823 C150.70226336 -0.11904979 152.37762841 -0.12250498 154.05290222 -0.13519669 C169.74873279 -0.24466718 169.74873279 -0.24466718 175.08151245 4.00412941 C181.06399736 10.24110855 181.1066349 15.82823517 181.03211975 24.13795471 C181.04022423 25.8660437 181.04022423 25.8660437 181.04849243 27.62904358 C181.06096929 31.42581607 181.04449544 35.22182883 181.02650452 39.01856995 C181.02665952 41.66220133 181.02814866 44.30583295 181.03091431 46.94946289 C181.03361138 52.48487673 181.02018317 58.0200731 180.9969635 63.55543518 C180.97034359 69.94542157 180.96861261 76.33504482 180.98035187 82.72506768 C180.9911482 88.88620201 180.98482682 95.04718459 180.97079659 101.20831108 C180.96628172 103.82417863 180.96594558 106.44005685 180.96986198 109.05592537 C180.97277304 112.71109521 180.95627145 116.36567228 180.9344635 120.02076721 C180.94121597 121.64102058 180.94121597 121.64102058 180.94810486 123.29400635 C180.88610905 129.54962567 180.46678484 134.36908231 175.99525452 139.15919495 C171.0078344 142.97310444 168.85866056 143.64121847 162.57270813 143.66183472 C161.84836035 143.6655114 161.12401258 143.66918809 160.37771487 143.6729762 C157.93804653 143.68403447 155.49842076 143.6878605 153.05873108 143.69166565 C151.31449752 143.6979287 149.57026529 143.70457536 147.82603455 143.71157837 C143.0779723 143.72900319 138.32992015 143.73954424 133.58183384 143.7477839 C130.6165175 143.75293109 127.65120432 143.75900696 124.6858902 143.76529503 C115.41141938 143.78435155 106.13695655 143.7985815 96.86246991 143.806907 C86.1506007 143.81668103 75.43893804 143.84300298 64.72714162 143.88340789 C56.45191497 143.91355262 48.17674758 143.92837433 39.90146708 143.93168801 C34.95706322 143.93404045 30.0128799 143.94302591 25.06853485 143.96814919 C20.41622455 143.99140608 15.76428037 143.99567276 11.11192703 143.9853878 C9.40512246 143.98489174 7.69830002 143.9912328 5.99155045 144.00494385 C3.65927707 144.02263034 1.32832223 144.0155737 -1.00395203 144.00241089 C-2.30845684 144.00479924 -3.61296165 144.0071876 -4.95699692 144.00964832 C-9.81060183 143.32569197 -12.76737582 141.29102508 -16.1265316 137.78554535 C-19.99124896 131.91337681 -20.18177852 126.71330159 -20.11656189 119.80958557 C-20.12532349 118.6605928 -20.13408508 117.51160004 -20.14311218 116.32778931 C-20.16504161 112.54594177 -20.15057468 108.76527224 -20.13365173 104.9834137 C-20.13702168 102.34600094 -20.14187578 99.7085897 -20.14814758 97.07118225 C-20.15722292 91.55009807 -20.14531242 86.02934921 -20.1214447 80.50831604 C-20.09423691 74.14147361 -20.10305262 67.77543195 -20.13057673 61.40860891 C-20.15607306 55.26290947 -20.15328272 49.1175627 -20.13866806 42.97183228 C-20.13533845 40.36598599 -20.13940537 37.7601192 -20.15106583 35.15429688 C-20.16379924 31.50889871 -20.14435886 27.86502666 -20.11656189 24.21974182 C-20.12668304 23.1483345 -20.1368042 22.07692719 -20.14723206 20.97305298 C-20.05597119 14.4955847 -19.24089937 9.21668489 -14.46958923 4.5146637 C-9.43753642 1.0896304 -6.2030888 0.01359174 0 0 Z " fill="#FED37C" transform="translate(96.46958923339844,211.48533630371094)"/>
<path d="M0 0 C16.71159275 -0.72522006 33.32201616 5.54195742 46.0546875 16.2578125 C60.54376036 29.932577 67.80735066 45.24683706 69.3828125 65.09765625 C68.70232326 96.40016151 45.53582028 131.04880066 30.2734375 157.546875 C26.80123924 163.58683024 23.494344 169.71186582 20.1953125 175.84765625 C8.29020388 197.94026487 8.29020388 197.94026487 5.0703125 201.16015625 C2.3203125 201.84765625 2.3203125 201.84765625 -0.9296875 201.16015625 C-5.97614667 195.30146326 -9.39192107 187.82989164 -12.9921875 181.03515625 C-17.31934552 172.94706269 -21.74334731 164.93076902 -26.3046875 156.97265625 C-70.51282104 79.30170251 -70.51282104 79.30170251 -62.3046875 48.78515625 C-56.22608432 30.4222679 -45.36280668 16.21986044 -27.9921875 7.34765625 C-18.84241868 2.98636579 -10.04431208 0.83363724 0 0 Z " fill="#EE524F" transform="translate(433.9296875,15.83984375)"/>
<path d="M0 0 C106.92 0 213.84 0 324 0 C324 8.91 324 17.82 324 27 C217.08 27 110.16 27 0 27 C0 18.09 0 9.18 0 0 Z " fill="#4C6783" transform="translate(15,372)"/>
<path d="M0 0 C9.67830547 9.32157306 14.62099791 20.01238247 15.1875 33.5625 C14.1575964 60.42827112 -6.33125948 89.0490246 -19.25 112 C-19.797771 112.97340332 -20.34554199 113.94680664 -20.90991211 114.94970703 C-22.37979211 117.5401976 -23.87416478 120.11486918 -25.375 122.6875 C-25.73625977 123.34669434 -26.09751953 124.00588867 -26.46972656 124.68505859 C-28.00164333 127.30802519 -28.91319341 128.53721223 -31.84765625 129.4921875 C-35.76921309 128.24359289 -36.96861746 125.2513975 -38.8125 121.8125 C-39.23007568 121.06871094 -39.64765137 120.32492188 -40.07788086 119.55859375 C-41.533274 116.94692927 -42.95525764 114.31870733 -44.375 111.6875 C-44.92961914 110.67010742 -45.48423828 109.65271484 -46.05566406 108.60449219 C-49.66412949 101.98464555 -53.22859173 95.34240777 -56.77099609 88.68701172 C-58.16183116 86.08612898 -59.56896437 83.49556018 -60.98828125 80.91015625 C-82.49913114 41.51798917 -82.49913114 41.51798917 -76.46875 19.76953125 C-71.99998896 7.17720104 -63.97311122 -1.78751067 -52.0625 -7.75 C-33.79347598 -15.42085336 -15.12439709 -12.89292867 0 0 Z " fill="#EE524F" transform="translate(88.375,38.3125)"/>
<path d="M0 0 C11.84945803 8.1572356 20.47935627 19.75545353 23.80078125 33.9296875 C24.52304762 39.19712509 24.41505803 44.44874073 24.1875 49.75 C20.5575 49.75 16.9275 49.75 13.1875 49.75 C12.9090625 51.85375 12.9090625 51.85375 12.625 54 C10.45114947 64.65790605 4.1275043 73.64876484 -4.8125 79.75 C-16.08757537 85.86944389 -28.5288276 87.99374171 -41.125 84.6875 C-52.1641333 80.68001631 -60.82306293 73.62449933 -66.15625 63.09765625 C-67.9982804 58.72283406 -69.31288645 54.49632873 -69.8125 49.75 C-73.1125 49.75 -76.4125 49.75 -79.8125 49.75 C-80.65795505 34.08559678 -76.99579826 20.19334436 -66.40234375 8.24609375 C-47.95445438 -9.11395939 -22.07941237 -13.18128853 0 0 Z " fill="#2E343A" transform="translate(240.8125,411.25)"/>
<path d="M0 0 C1.31581055 -0.01740234 1.31581055 -0.01740234 2.65820312 -0.03515625 C15.84132059 0.02313314 28.10262384 5.41965561 37.72265625 14.41015625 C49.50871904 26.99697065 52.81043895 40.59779766 52.5625 57.375 C48.9325 57.375 45.3025 57.375 41.5625 57.375 C41.52125 58.4475 41.48 59.52 41.4375 60.625 C40.13988409 70.65041606 34.25087774 79.11363177 26.5625 85.375 C16.38284071 93.21497954 5.04820893 94.48622809 -7.4375 93.375 C-18.92375806 90.85882713 -28.7270344 83.97388341 -35.4375 74.375 C-38.46509429 68.59905556 -40.4375 63.94505511 -40.4375 57.375 C-44.0675 57.375 -47.6975 57.375 -51.4375 57.375 C-52.33999593 42.05763858 -48.21115351 29.22048627 -38.6640625 17.12890625 C-28.33645274 5.95155645 -15.0600441 -0.19830343 0 0 Z " fill="#2E343A" transform="translate(104.4375,403.625)"/>
<path d="M0 0 C11.86176454 8.12449626 20.20959313 19.1913126 23.9140625 33.203125 C24.13618873 36.16819479 24.10452732 39.10702935 24.0390625 42.078125 C24.03003906 42.861875 24.02101563 43.645625 24.01171875 44.453125 C23.98834313 46.36992555 23.95247903 48.28656691 23.9140625 50.203125 C20.6140625 50.203125 17.3140625 50.203125 13.9140625 50.203125 C13.77871094 50.94175781 13.64335937 51.68039062 13.50390625 52.44140625 C11.03542912 64.07428947 6.06976903 72.41842593 -3.52734375 79.546875 C-14.08685188 86.38234286 -25.56193808 87.64295293 -37.90234375 85.77734375 C-47.9728645 83.1425205 -57.28144265 76.86451966 -63.0859375 68.203125 C-66.31045979 62.38386994 -68.64161315 56.8679902 -69.0859375 50.203125 C-72.3859375 50.203125 -75.6859375 50.203125 -79.0859375 50.203125 C-80.0197538 34.22449061 -76.92079356 21.58869466 -66.0859375 9.203125 C-61.09156343 4.00147454 -55.57603693 0.29873163 -49.0859375 -2.796875 C-48.3228125 -3.19132812 -47.5596875 -3.58578125 -46.7734375 -3.9921875 C-32.10978158 -10.54500874 -13.53759519 -7.88265036 0 0 Z " fill="#2E343A" transform="translate(441.0859375,410.796875)"/>
<path d="M0 0 C8.64395299 6.03352844 15.02067021 14.44357445 17 25 C20.35560012 53.67126688 -4.39227056 86.97197716 -19 110 C-21.31811523 109.78588867 -21.31811523 109.78588867 -24 109 C-25.57055664 107.0324707 -25.57055664 107.0324707 -26.91015625 104.42578125 C-27.67356323 102.97594849 -27.67356323 102.97594849 -28.45239258 101.49682617 C-28.98372803 100.44599854 -29.51506348 99.3951709 -30.0625 98.3125 C-31.21260417 96.10628186 -32.36366683 93.90056315 -33.515625 91.6953125 C-34.09505859 90.57415039 -34.67449219 89.45298828 -35.27148438 88.29785156 C-37.37138114 84.29143835 -39.57679389 80.35079439 -41.79125977 76.40698242 C-61.98346173 40.30989726 -61.98346173 40.30989726 -58.34765625 22.87109375 C-54.89931885 11.28290412 -48.1168861 3.85199337 -37.90234375 -2.25390625 C-26.35786605 -7.93703678 -10.76340578 -6.68398085 0 0 Z " fill="#EE524F" transform="translate(238,64)"/>
<path d="M0 0 C7.74588506 6.07476117 14.03405849 14.56102059 15.42529297 24.52587891 C15.56158116 26.75591313 15.59281137 28.95359995 15.5625 31.1875 C15.55492676 31.97431152 15.54735352 32.76112305 15.53955078 33.57177734 C15.19310287 45.88458665 10.17364156 54.75209916 1.375 63.125 C-8.1970997 71.18765321 -19.86183365 72.20723743 -31.875 71.375 C-42.37855603 69.28228643 -50.51396841 62.9279734 -56.8125 54.4375 C-63.33774755 44.2648853 -64.4527357 33.51271928 -62.40625 21.66015625 C-59.63372914 12.26989216 -52.82440327 3.0459084 -44.48828125 -2.09765625 C-29.57877373 -9.92914336 -14.25189154 -9.65766039 0 0 Z " fill="#F4F3F3" transform="translate(459.875,50.625)"/>
<path d="M0 0 C19.47 0 38.94 0 59 0 C71.90376623 30.49981108 71.90376623 30.49981108 76.8112793 42.80517578 C77.72318964 45.08939812 78.64178579 47.37086934 79.56054688 49.65234375 C80.14882627 51.1222403 80.73673373 52.59228577 81.32421875 54.0625 C81.59594406 54.73619629 81.86766937 55.40989258 82.14762878 56.10400391 C84 60.77042623 84 60.77042623 84 63 C56.28 63 28.56 63 0 63 C0 42.21 0 21.42 0 0 Z " fill="#BFDDFE" transform="translate(370,294)"/>
<path d="M0 0 C1.06122574 -0.0076664 1.06122574 -0.0076664 2.14389038 -0.01548767 C4.48867186 -0.02941741 6.83316051 -0.02842437 9.17797852 -0.02612305 C10.80461233 -0.03000823 12.43124512 -0.03434253 14.05787659 -0.03910828 C17.47009568 -0.04657783 20.88221133 -0.046274 24.29443359 -0.04101562 C28.67064037 -0.03522108 33.04642391 -0.05214781 37.42256069 -0.0753603 C40.78284691 -0.09008129 44.14303083 -0.09097157 47.50334358 -0.08785057 C49.11691183 -0.08836465 50.73048568 -0.09361851 52.34402275 -0.10366249 C54.59942106 -0.11597786 56.8539903 -0.10926544 59.109375 -0.09765625 C60.39351791 -0.09828568 61.67766083 -0.0989151 63.00071716 -0.0995636 C66.11938477 0.2746582 66.11938477 0.2746582 67.89002991 1.41065979 C69.58557981 3.98152231 70.66477306 6.60596104 71.79907227 9.47094727 C72.0482843 10.09412338 72.29749634 10.7172995 72.55426025 11.35935974 C73.3749789 13.41683165 74.1846519 15.47846587 74.99438477 17.5402832 C75.56513165 18.97682243 76.13659435 20.41307745 76.70874023 21.84906006 C78.21368229 25.63142021 79.70943025 29.41734911 81.203125 33.2041626 C83.01255179 37.78666974 84.83246668 42.36501846 86.65103149 46.94390488 C88.06752909 50.5109493 89.48242753 54.07859898 90.89233398 57.64825439 C91.15375183 58.30920609 91.41516968 58.97015778 91.68450928 59.65113831 C92.38756915 61.42897403 93.089696 63.20717865 93.79174805 64.9854126 C94.74411967 67.34493168 95.73068324 69.66599953 96.75952148 71.9911499 C98.19393298 75.45466135 98.7078035 77.57602614 98.11938477 81.2746582 C96.34493371 83.32170653 94.85353233 84.17162701 92.16309929 84.54920578 C89.61520465 84.66702957 87.08381361 84.67975164 84.53320312 84.6628418 C83.0765197 84.67072723 83.0765197 84.67072723 81.59040833 84.67877197 C78.37985155 84.69197788 75.16979035 84.68323229 71.95922852 84.6730957 C69.73010666 84.6751161 67.50098544 84.67802725 65.27186584 84.68179321 C60.6004507 84.68621724 55.92920765 84.67978223 51.2578125 84.66577148 C45.26296023 84.6486698 39.26851059 84.65852673 33.27367306 84.67648888 C28.67123873 84.68731604 24.06890027 84.68388543 19.46646309 84.6761055 C17.2556103 84.67410106 15.04474887 84.67657129 12.83390617 84.68354416 C9.74775922 84.69114205 6.66226972 84.67957791 3.57617188 84.6628418 C2.65816803 84.66891449 1.74016418 84.67498718 0.79434204 84.6812439 C-0.04541672 84.67278442 -0.88517548 84.66432495 -1.75038147 84.65560913 C-2.84459207 84.65391252 -2.84459207 84.65391252 -3.96090794 84.65218163 C-6.47179742 84.15839823 -7.35699858 83.30415381 -8.88061523 81.2746582 C-9.17141251 78.67422506 -9.28035231 76.31408425 -9.25292969 73.71386719 C-9.25658035 72.94610962 -9.26023102 72.17835205 -9.26399231 71.3873291 C-9.27210192 68.84824543 -9.25848589 66.30979905 -9.24389648 63.77075195 C-9.24337798 62.00863139 -9.24389531 60.24651025 -9.2454071 58.48439026 C-9.24531737 54.79142624 -9.23488376 51.09868047 -9.21679688 47.40576172 C-9.19409299 42.66523054 -9.19356841 37.92501788 -9.20031452 33.18444729 C-9.20365093 29.54626113 -9.1970309 25.90814799 -9.18718529 22.26997566 C-9.18332857 20.52162114 -9.18218702 18.7732585 -9.18377113 17.02490044 C-9.18414075 14.5851268 -9.17155165 12.14576642 -9.15527344 9.70605469 C-9.15898956 8.6158477 -9.15898956 8.6158477 -9.16278076 7.50361633 C-9.08524137 0.24599505 -6.79479932 0.02439425 0 0 Z M1.11938477 10.2746582 C1.11938477 31.0646582 1.11938477 51.8546582 1.11938477 73.2746582 C28.83938477 73.2746582 56.55938477 73.2746582 85.11938477 73.2746582 C82.78707284 66.20314679 82.78707284 66.20314679 80.18994141 59.26489258 C79.84270523 58.39368774 79.49546906 57.52248291 79.13771057 56.62487793 C78.77201462 55.71524292 78.40631866 54.80560791 78.02954102 53.8684082 C77.64374374 52.90366577 77.25794647 51.93892334 76.86045837 50.94494629 C76.04900282 48.9174709 75.23628529 46.89050017 74.42236328 44.86401367 C73.18593588 41.78474732 71.95411556 38.70366803 70.72290039 35.62231445 C69.9295536 33.64173633 69.13594258 31.66126402 68.34204102 29.6809082 C67.97836929 28.77127319 67.61469757 27.86163818 67.24000549 26.92443848 C66.71442299 25.61763123 66.71442299 25.61763123 66.17822266 24.28442383 C65.87638565 23.53213501 65.57454865 22.77984619 65.26356506 22.00476074 C63.61329479 18.06708844 61.85339413 14.17617928 60.11938477 10.2746582 C40.64938477 10.2746582 21.17938477 10.2746582 1.11938477 10.2746582 Z " fill="#9F3735" transform="translate(368.880615234375,283.725341796875)"/>
<path d="M0 0 C10.89230221 7.58376542 19.79896855 19.11511953 22.375 32.36328125 C23.38046345 41.01026692 23.49626985 49.76491018 20.6875 58.05078125 C20.43097656 58.83710937 20.17445313 59.6234375 19.91015625 60.43359375 C16.03320615 71.31567687 8.13311703 80.85376433 -1.98046875 86.5546875 C-4.72289328 87.85047342 -7.47396698 88.98329875 -10.3125 90.05078125 C-11.11429687 90.37046875 -11.91609375 90.69015625 -12.7421875 91.01953125 C-25.62964429 95.58295857 -38.37500602 93.21057783 -50.4765625 87.578125 C-63.70692869 80.49401754 -71.19457266 69.52215028 -76.1875 55.61328125 C-79.56235883 42.86381457 -77.42843134 29.30257536 -71.1875 17.86328125 C-65.38510354 8.55755107 -58.09959637 1.95177776 -48.3125 -2.94921875 C-47.51714844 -3.36300781 -46.72179687 -3.77679688 -45.90234375 -4.203125 C-31.34208024 -10.66185086 -13.36232445 -7.86297158 0 0 Z M-59.55078125 19.74609375 C-66.70134005 29.10048331 -67.32409826 39.64345675 -66.3125 51.05078125 C-64.11301451 61.8229602 -57.53670796 70.17656505 -48.7421875 76.54296875 C-38.89028165 82.65685244 -28.3116698 83.64683756 -17.00390625 81.390625 C-7.25174498 78.52088073 0.97191855 72.50217456 6.6875 64.05078125 C12.27458319 53.50337099 13.42424208 41.70130547 11.07421875 29.99609375 C7.12154119 19.09575827 -1.04773194 11.09902784 -11.3125 6.05078125 C-30.04744133 -1.27573212 -46.88105512 4.96059803 -59.55078125 19.74609375 Z " fill="#C34643" transform="translate(463.3125,39.94921875)"/>
<path d="M0 0 C12.54 0 25.08 0 38 0 C38.08021762 18.88679266 38.08021762 18.88679266 38.09765625 26.91796875 C38.10962653 32.40482434 38.12380947 37.89161339 38.15087891 43.37841797 C38.17255936 47.80042374 38.18455846 52.22235819 38.18975449 56.64441299 C38.19345889 58.33417001 38.20069237 60.02392298 38.21146011 61.71364975 C38.22591143 64.07464889 38.22798064 66.4353507 38.22705078 68.79638672 C38.23424133 69.49985229 38.24143188 70.20331787 38.24884033 70.92810059 C38.22810432 75.77189568 38.22810432 75.77189568 36 78 C33.36703938 77.79539365 32.20439056 77.18747233 30.25390625 75.3984375 C29.69574219 74.73070312 29.13757813 74.06296875 28.5625 73.375 C27.964375 72.66085937 27.36625 71.94671875 26.75 71.2109375 C24.37846034 68.21475124 22.16478196 65.14877377 20 62 C15.9460529 63.3513157 14.37436639 66.12094967 11.9375 69.4375 C7.1657839 75.8342161 7.1657839 75.8342161 5 78 C1.46428571 77.46428571 1.46428571 77.46428571 0 76 C-0.09494733 73.62699131 -0.12559319 71.28321297 -0.11352539 68.90991211 C-0.11367142 68.16849472 -0.11381744 67.42707733 -0.1139679 66.66319275 C-0.11326865 64.20121379 -0.10547574 61.73930957 -0.09765625 59.27734375 C-0.09579211 57.57483461 -0.09436819 55.87232493 -0.09336853 54.16981506 C-0.08954302 49.68006927 -0.07971247 45.19035562 -0.06866455 40.70062256 C-0.05665668 35.31836359 -0.05204835 29.9360939 -0.04621124 24.55382538 C-0.03650072 16.36919454 -0.01734441 8.18463428 0 0 Z " fill="#EDAF54" transform="translate(116,212)"/>
<path d="M0 0 C12.21 0 24.42 0 37 0 C37.08021762 18.88679266 37.08021762 18.88679266 37.09765625 26.91796875 C37.10962653 32.40482434 37.12380947 37.89161339 37.15087891 43.37841797 C37.17255936 47.80042374 37.18455846 52.22235819 37.18975449 56.64441299 C37.19345889 58.33417001 37.20069237 60.02392298 37.21146011 61.71364975 C37.22591143 64.07464889 37.22798064 66.4353507 37.22705078 68.79638672 C37.23424133 69.49985229 37.24143188 70.20331787 37.24884033 70.92810059 C37.22810432 75.77189568 37.22810432 75.77189568 35 78 C32.46675142 77.78618745 31.29956361 77.29298876 29.47607422 75.50952148 C28.77248779 74.57474976 28.77248779 74.57474976 28.0546875 73.62109375 C27.53519531 72.94755859 27.01570313 72.27402344 26.48046875 71.58007812 C25.95066406 70.87302734 25.42085937 70.16597656 24.875 69.4375 C23.81542456 68.03616701 22.7505845 66.63879396 21.6796875 65.24609375 C21.21288574 64.62404053 20.74608398 64.0019873 20.26513672 63.36108398 C19.63889404 62.68734741 19.63889404 62.68734741 19 62 C18.34 62 17.68 62 17 62 C15.43753081 63.88563644 13.99022423 65.76640899 12.5625 67.75 C12.16740234 68.28882813 11.77230469 68.82765625 11.36523438 69.3828125 C10.2394032 70.91888832 9.11956487 72.45935102 8 74 C7.00279524 75.33542519 6.00412794 76.66977263 5 78 C3.35 77.67 1.7 77.34 0 77 C0 51.59 0 26.18 0 0 Z " fill="#EDAF54" transform="translate(201,212)"/>
<path d="M0 0 C7.22165795 4.38625646 12.32825322 9.90136448 14.80078125 18.09375 C16.08177828 27.42348944 14.65108366 34.63509341 9.2578125 42.28125 C5.51933477 46.9350987 1.69358909 50.62975555 -4.19921875 52.09375 C-14.18285486 53.04613634 -22.58036611 52.7053107 -30.82421875 46.65625 C-36.8593424 41.03734178 -40.4859861 33.30266342 -40.94921875 25.09375 C-40.49000602 17.30754308 -37.48662545 10.39845884 -31.97265625 4.85546875 C-22.9826629 -2.40567973 -10.93421785 -5.05736843 0 0 Z " fill="#F4F3F3" transform="translate(69.19921875,47.90625)"/>
<path d="M0 0 C5.69575049 3.9756663 9.58697995 9.31872828 11.7421875 15.9140625 C12.91154352 25.64963124 10.963115 33.02634999 4.9921875 40.7265625 C0.70222247 45.43133331 -5.48357368 48.5119366 -11.82421875 49.1875 C-20.28979841 49.4744688 -26.57965456 47.97720399 -33.0703125 42.33984375 C-38.32115813 36.70831181 -41.41791977 30.18727733 -41.8203125 22.4765625 C-41.49655157 14.76026043 -38.15246628 8.67539648 -33.0078125 3.0390625 C-23.02369406 -6.06283858 -11.60451504 -6.35987707 0 0 Z " fill="#A0A9B5" transform="translate(227.2578125,433.0859375)"/>
<path d="M0 0 C6.02547116 3.48138334 9.83649039 10.50947118 12 17 C12.94130125 26.41301249 11.04263833 33.3580392 5.25 40.8125 C0.96003497 45.51727081 -5.22576118 48.5978741 -11.56640625 49.2734375 C-20.23647893 49.56733827 -26.49069464 47.99030983 -33.0703125 42.16796875 C-38.55041454 36.3553919 -41.03786627 30.69934154 -41.5625 22.75 C-41.3232489 15.27080243 -38.29712906 8.38372033 -33.06640625 3.015625 C-22.07564412 -5.63986799 -12.35318021 -5.65281526 0 0 Z " fill="#A0A9B6" transform="translate(428,433)"/>
<path d="M0 0 C5.55518301 3.89750851 10.28090199 8.26416316 12 15 C12.98024735 24.63346533 12.17487845 31.87922831 7.0625 40.125 C1.67694372 45.99428887 -6.26526554 49.33254425 -14.125 49.6875 C-22.25801288 49.20908748 -28.41588762 46.06246604 -33.9375 40.125 C-39.17389389 33.46835777 -40.63814965 27.70118099 -40.40625 19.28515625 C-39.4098999 11.22813283 -35.38205001 5.38677888 -29.09765625 0.40625 C-19.84593564 -5.7960208 -9.47242857 -5.78586178 0 0 Z " fill="#A0A9B6" transform="translate(119,433)"/>
<path d="M0 0 C11.86176454 8.12449626 20.20959313 19.1913126 23.9140625 33.203125 C24.13618873 36.16819479 24.10452732 39.10702935 24.0390625 42.078125 C24.03003906 42.861875 24.02101563 43.645625 24.01171875 44.453125 C23.98834313 46.36992555 23.95247903 48.28656691 23.9140625 50.203125 C20.2840625 50.203125 16.6540625 50.203125 12.9140625 50.203125 C12.88828125 49.32011719 12.8625 48.43710937 12.8359375 47.52734375 C12.16803272 33.39508578 8.50038332 23.3667955 -1.7109375 13.515625 C-11.46253005 5.52371833 -21.81970529 4.00357167 -34.02685547 4.95947266 C-41.72666399 5.87059536 -47.6651301 9.10747803 -53.52734375 14.03125 C-55.0859375 15.203125 -55.0859375 15.203125 -57.0859375 15.203125 C-57.3540625 15.76386719 -57.6221875 16.32460938 -57.8984375 16.90234375 C-59.17031697 19.36661023 -60.60809438 21.66954905 -62.0859375 24.015625 C-67.14296334 32.49321819 -67.57422286 40.49401308 -68.0859375 50.203125 C-71.7159375 50.203125 -75.3459375 50.203125 -79.0859375 50.203125 C-80.0197538 34.22449061 -76.92079356 21.58869466 -66.0859375 9.203125 C-61.09156343 4.00147454 -55.57603693 0.29873163 -49.0859375 -2.796875 C-48.3228125 -3.19132812 -47.5596875 -3.58578125 -46.7734375 -3.9921875 C-32.10978158 -10.54500874 -13.53759519 -7.88265036 0 0 Z " fill="#9D3735" transform="translate(441.0859375,410.796875)"/>
<path d="M0 0 C1.31581055 -0.01740234 1.31581055 -0.01740234 2.65820312 -0.03515625 C15.84132059 0.02313314 28.10262384 5.41965561 37.72265625 14.41015625 C49.50871904 26.99697065 52.81043895 40.59779766 52.5625 57.375 C48.9325 57.375 45.3025 57.375 41.5625 57.375 C41.53671875 56.48039062 41.5109375 55.58578125 41.484375 54.6640625 C40.85015648 41.14367674 36.85450054 30.15108143 26.9375 20.625 C16.02796898 11.86060149 4.05025999 10.9105634 -9.4375 12.375 C-19.08377738 14.38218134 -27.5519581 21.06078042 -33.08984375 29.09765625 C-38.54161145 38.31035356 -40.26409245 46.71831782 -40.4375 57.375 C-44.0675 57.375 -47.6975 57.375 -51.4375 57.375 C-52.33999593 42.05763858 -48.21115351 29.22048627 -38.6640625 17.12890625 C-28.33645274 5.95155645 -15.0600441 -0.19830343 0 0 Z " fill="#4C6682" transform="translate(104.4375,403.625)"/>
<path d="M0 0 C19.47 0 38.94 0 59 0 C59 0.33 59 0.66 59 1 C57.54980469 0.79503906 57.54980469 0.79503906 56.0703125 0.5859375 C51.73902538 0.35436373 48.00906928 0.20168465 44 2 C39.82391735 6.0648317 37.74285588 11.98204225 35.35449219 17.19628906 C32.89720128 22.28272179 29.95281857 27.08833442 27.0625 31.9375 C23.5755417 37.81668483 20.12629467 43.68570131 16.9765625 49.75390625 C16.503396 50.64150635 16.03022949 51.52910645 15.54272461 52.44360352 C14.66334349 54.10240367 13.81071805 55.77577274 12.99047852 57.46459961 C11.79296875 59.6875 11.79296875 59.6875 9 63 C6.03 63 3.06 63 0 63 C0 42.21 0 21.42 0 0 Z " fill="#BED8F9" transform="translate(370,294)"/>
<path d="M0 0 C11.84945803 8.1572356 20.47935627 19.75545353 23.80078125 33.9296875 C24.52304762 39.19712509 24.41505803 44.44874073 24.1875 49.75 C20.5575 49.75 16.9275 49.75 13.1875 49.75 C13.08953125 48.69941406 12.9915625 47.64882813 12.890625 46.56640625 C12.08448103 38.70087832 11.26968454 31.67897112 7.1875 24.75 C6.754375 23.98171875 6.32125 23.2134375 5.875 22.421875 C0.31057203 13.28895517 -7.57267252 8.52107784 -17.56640625 5.16015625 C-29.87007745 2.9133989 -41.60960166 4.52327769 -52.03125 11.4296875 C-61.58725329 18.51286538 -67.01156911 28.1671708 -68.8125 39.75 C-69.21798318 43.08241927 -69.52971385 46.40369727 -69.8125 49.75 C-73.1125 49.75 -76.4125 49.75 -79.8125 49.75 C-80.65795505 34.08559678 -76.99579826 20.19334436 -66.40234375 8.24609375 C-47.95445438 -9.11395939 -22.07941237 -13.18128853 0 0 Z " fill="#4C6682" transform="translate(240.8125,411.25)"/>
<path d="M0 0 C5.55528736 3.05322093 8.9441415 7.38828301 11.75 13 C12.38313228 20.90896393 12.88076102 28.53012539 7.75 35 C2.37071647 40.80910522 -2.70696021 43.02599549 -10.625 43.375 C-16.93122839 43.22953747 -21.42490381 41.71184067 -26.00390625 37.31640625 C-31.72965797 30.90080493 -32.77878544 26.19627116 -32.6171875 17.55078125 C-31.9708795 11.30084535 -29.86608013 7.16250407 -25.01953125 3.15625 C-16.99501611 -2.39414873 -9.17685293 -4.13721963 0 0 Z " fill="#F4F2F2" transform="translate(227.25,76)"/>
<path d="M0 0 C18.71369889 0.5732124 37.19854222 16.33698974 49.5 29.3125 C63.52442413 45.59313862 74.53667708 69.7176509 74.9375 91.5625 C74.96328125 92.41070312 74.9890625 93.25890625 75.015625 94.1328125 C74.6875 96.4375 74.6875 96.4375 73.359375 98.2109375 C71.6875 99.4375 71.6875 99.4375 68.6875 99.9375 C65.6875 99.4375 65.6875 99.4375 64.11328125 97.48828125 C62.22587169 93.44974188 61.60930558 89.49888911 60.875 85.125 C57.64469681 67.63895112 51.11418717 52.2020611 39.6875 38.4375 C39.24019531 37.84453125 38.79289062 37.2515625 38.33203125 36.640625 C28.36116059 23.8919458 12.23280559 16.64718806 -2.58984375 11.12890625 C-4.3125 10.4375 -4.3125 10.4375 -5.3125 9.4375 C-5.5 6 -5.5 6 -5.3125 2.4375 C-3.3125 0.4375 -3.3125 0.4375 0 0 Z " fill="#EF524F" transform="translate(278.3125,36.5625)"/>
<path d="M0 0 C7.56148455 6.4245222 12.3436135 14.78002149 13.44140625 24.66015625 C13.86052395 35.13809887 10.84509008 43.77565489 4.10546875 51.80859375 C-3.48755457 59.49147534 -12.13954624 62.89192471 -22.8125 63.25 C-33.46833867 62.95241482 -40.01839732 59.50438938 -47.67578125 52.18359375 C-55.32965632 43.93154727 -57.38327141 35.7935988 -57.17578125 24.6328125 C-56.33580127 13.96397591 -51.67366718 6.95375887 -43.875 -0.1875 C-31.00438693 -10.47433146 -13.14347928 -9.48271156 0 0 Z M-37.875 4.8125 C-38.90625 5.4725 -39.9375 6.1325 -41 6.8125 C-46.85461113 12.07199956 -50.19712817 20.05986989 -50.625 27.8125 C-50.16176735 36.02141342 -46.53512365 43.75609178 -40.5 49.375 C-32.31413245 55.38151321 -23.80161975 55.92376852 -13.875 54.8125 C-6.27132056 52.45612301 -0.79082007 46.68949442 3.22265625 39.9765625 C6.27992242 33.23635707 6.3857998 25.015166 4.28125 18 C1.00958101 10.74927412 -4.24237522 5.23184572 -11.5 1.875 C-20.2958626 -0.90630043 -30.26828855 -0.56219518 -37.875 4.8125 Z " fill="#C34643" transform="translate(78.875,45.1875)"/>
<path d="M0 0 C0.67877197 0.00008057 1.35754395 0.00016113 2.05688477 0.00024414 C4.12667451 -0.00194046 6.1959298 -0.02008804 8.265625 -0.0390625 C10.21178711 -0.04196289 10.21178711 -0.04196289 12.19726562 -0.04492188 C13.39536865 -0.04903076 14.59347168 -0.05313965 15.82788086 -0.05737305 C18.70117188 0.18554688 18.70117188 0.18554688 20.70117188 2.18554688 C20.90082561 4.81494883 20.98101297 7.33674851 20.96679688 9.96679688 C20.96966705 11.12072937 20.96966705 11.12072937 20.97259521 12.29797363 C20.97395696 13.92537767 20.97026126 15.55279258 20.96191406 17.18017578 C20.95121408 19.67570318 20.96180939 22.1705107 20.97460938 24.66601562 C20.97328778 26.2454443 20.97072538 27.82487253 20.96679688 29.40429688 C20.97084534 30.15328247 20.9748938 30.90226807 20.97906494 31.6739502 C20.93109431 36.95562444 20.93109431 36.95562444 18.70117188 39.18554688 C15.93554688 39.44433594 15.93554688 39.44433594 12.45117188 39.45117188 C10.57945312 39.45503906 10.57945312 39.45503906 8.66992188 39.45898438 C6.70539063 39.44738281 6.70539063 39.44738281 4.70117188 39.43554688 C3.39148438 39.44328125 2.08179688 39.45101562 0.73242188 39.45898438 C-0.51539063 39.45640625 -1.76320312 39.45382812 -3.04882812 39.45117188 C-4.77359375 39.44778809 -4.77359375 39.44778809 -6.53320312 39.44433594 C-9.29882812 39.18554688 -9.29882812 39.18554688 -11.29882812 37.18554688 C-11.48628323 34.47244038 -11.55448218 31.86325602 -11.52929688 29.15039062 C-11.52883865 28.35653458 -11.52838043 27.56267853 -11.52790833 26.74476624 C-11.52488578 25.0660757 -11.51699938 23.38738798 -11.50463867 21.70874023 C-11.48637698 19.12994529 -11.484129 16.55150911 -11.484375 13.97265625 C-11.47946008 12.34439792 -11.47363188 10.71614203 -11.46679688 9.08789062 C-11.46568405 8.31186996 -11.46457123 7.5358493 -11.46342468 6.73631287 C-11.38626898 -1.90116759 -7.76739739 0.0347621 0 0 Z " fill="#D78F44" transform="translate(157.298828125,299.814453125)"/>
<path d="M0 0 C0.67877197 0.00008057 1.35754395 0.00016113 2.05688477 0.00024414 C4.12667451 -0.00194046 6.1959298 -0.02008804 8.265625 -0.0390625 C10.21178711 -0.04196289 10.21178711 -0.04196289 12.19726562 -0.04492188 C13.39536865 -0.04903076 14.59347168 -0.05313965 15.82788086 -0.05737305 C18.70117188 0.18554688 18.70117188 0.18554688 20.70117188 2.18554688 C20.91301835 4.73128248 21.00515995 7.16555325 21.00195312 9.71289062 C21.00623825 10.45761124 21.01052338 11.20233185 21.01493835 11.96961975 C21.02068469 13.5457355 21.02117967 15.12187778 21.0168457 16.69799805 C21.01368853 19.11032379 21.03712944 21.52142 21.0625 23.93359375 C21.06477325 25.46419116 21.06547637 26.99479187 21.06445312 28.52539062 C21.07366287 29.24734116 21.08287262 29.96929169 21.09236145 30.71311951 C21.06637975 33.52462558 20.99506378 35.68112059 19.56152344 38.14160156 C16.85158903 39.66229441 14.66757022 39.55719565 11.57226562 39.54882812 C10.37279297 39.54818359 9.17332031 39.54753906 7.9375 39.546875 C6.68388672 39.53076172 5.43027344 39.51464844 4.13867188 39.49804688 C2.25245117 39.50288086 2.25245117 39.50288086 0.328125 39.5078125 C-9.03194754 39.45242746 -9.03194754 39.45242746 -11.29882812 37.18554688 C-11.48628323 34.47244038 -11.55448218 31.86325602 -11.52929688 29.15039062 C-11.52883865 28.35653458 -11.52838043 27.56267853 -11.52790833 26.74476624 C-11.52488578 25.0660757 -11.51699938 23.38738798 -11.50463867 21.70874023 C-11.48637698 19.12994529 -11.484129 16.55150911 -11.484375 13.97265625 C-11.47946008 12.34439792 -11.47363188 10.71614203 -11.46679688 9.08789062 C-11.46568405 8.31186996 -11.46457123 7.5358493 -11.46342468 6.73631287 C-11.38626898 -1.90116759 -7.76739739 0.0347621 0 0 Z " fill="#D78F45" transform="translate(111.298828125,299.814453125)"/>
<path d="M0 0 C15.49719193 0.32909095 28.25769756 6.70310835 39.4140625 17.13671875 C44.294949 22.23432415 44.294949 22.23432415 44.9375 26.8125 C44.4375 30.25 44.4375 30.25 42.25 32.3125 C39.4375 33.25 39.4375 33.25 36.9375 32.75 C33.9208068 30.93998408 31.75050163 28.89343043 29.4375 26.25 C29.4375 25.59 29.4375 24.93 29.4375 24.25 C28.921875 24.023125 28.40625 23.79625 27.875 23.5625 C25.77443192 22.43142488 24.07673597 21.24780055 22.1875 19.8125 C14.78671984 14.4401992 5.52809731 12.211922 -3.5625 13.25 C-15.5110322 15.78963681 -24.5291054 20.84049253 -31.89453125 30.6484375 C-34.06861943 32.73596948 -35.57769288 33.08078259 -38.5625 33.25 C-41.4375 31.125 -41.4375 31.125 -43.5625 28.25 C-43.22675023 21.66497223 -38.03934903 17.57784649 -33.5625 13.25 C-23.89070676 4.95304018 -12.60093146 0.88427589 0 0 Z " fill="#EF524F" transform="translate(154.5625,15.75)"/>
<path d="M0 0 C1.6398065 2.45970975 2.69230838 4.46463562 3.78759766 7.16430664 C4.29790024 8.41559105 4.29790024 8.41559105 4.81851196 9.69215393 C5.18004364 10.5890947 5.54157532 11.48603546 5.9140625 12.41015625 C6.28856537 13.33340195 6.66306824 14.25664764 7.04891968 15.20787048 C7.83896546 17.15817041 8.62730468 19.10916239 9.4140625 21.06079102 C10.62249675 24.05629487 11.83821838 27.04876712 13.0546875 30.04101562 C13.82075253 31.93471789 14.58639215 33.82859231 15.3515625 35.72265625 C15.71714264 36.62162125 16.08272278 37.52058624 16.4593811 38.4467926 C16.7932785 39.27783005 17.1271759 40.10886749 17.47119141 40.96508789 C17.76716217 41.69772354 18.06313293 42.43035919 18.36807251 43.18519592 C19 45 19 45 19 47 C4.48 47 -10.04 47 -25 47 C-18.25137431 33.50274863 -18.25137431 33.50274863 -15.4921875 28.82421875 C-14.60080078 27.30538086 -14.60080078 27.30538086 -13.69140625 25.75585938 C-13.09199219 24.74330078 -12.49257813 23.73074219 -11.875 22.6875 C-10.66383775 20.62903847 -9.45289445 18.5704481 -8.2421875 16.51171875 C-7.40107422 15.08267212 -7.40107422 15.08267212 -6.54296875 13.62475586 C-2.40130368 7.16805176 -2.40130368 7.16805176 0 0 Z " fill="#BFDBFC" transform="translate(435,310)"/>
<path d="M0 0 C8.13237729 5.09223625 12.94347878 11.14509285 16.08984375 20.30859375 C17.58283808 28.73826941 15.3705985 36.1930096 10.8046875 43.3125 C7.08995842 48.1033623 2.48413455 50.697757 -2.91015625 53.30859375 C-3.90015625 53.80359375 -3.90015625 53.80359375 -4.91015625 54.30859375 C-15.15549011 55.14860096 -23.0614757 54.07774344 -31.72265625 48.49609375 C-38.4403682 41.7783818 -41.32020582 35.11175227 -41.34765625 25.49609375 C-41.32529018 17.32595317 -39.61858521 12.33949479 -34.11328125 6.35546875 C-24.64168162 -2.6614941 -12.12641503 -6.33731274 0 0 Z M-33.22265625 15.24609375 C-36.17735781 20.80287816 -35.80942313 27.24712309 -34.91015625 33.30859375 C-32.28438074 39.79416647 -27.79103061 43.75787716 -21.91015625 47.30859375 C-16.10360669 49.24411027 -9.9775921 48.9288245 -4.16015625 47.18359375 C1.17912576 44.10323874 6.50503515 40.6442828 8.64453125 34.55078125 C10.10768735 27.18366193 10.58333375 19.71264352 6.46484375 13.18359375 C3.76621595 9.76109873 0.96563415 7.37018439 -2.91015625 5.30859375 C-3.65265625 4.89609375 -4.39515625 4.48359375 -5.16015625 4.05859375 C-17.45833689 0.70454448 -25.7163601 5.71106891 -33.22265625 15.24609375 Z " fill="#C44744" transform="translate(229.91015625,70.69140625)"/>
<path d="M0 0 C1.19882812 0.00483398 1.19882812 0.00483398 2.421875 0.00976562 C3.246875 0.01814453 4.071875 0.02652344 4.921875 0.03515625 C5.76234375 0.03966797 6.6028125 0.04417969 7.46875 0.04882812 C9.53648901 0.06057664 11.60419124 0.07851103 13.671875 0.09765625 C13.671875 3.39765625 13.671875 6.69765625 13.671875 10.09765625 C12.50269531 10.1234375 11.33351563 10.14921875 10.12890625 10.17578125 C8.58069274 10.23207992 7.0325171 10.28942687 5.484375 10.34765625 C4.33098633 10.36892578 4.33098633 10.36892578 3.15429688 10.390625 C-1.8880035 10.60703274 -4.6671379 11.31582103 -8.328125 15.09765625 C-9.86027388 18.16195401 -9.55751048 20.71422045 -9.328125 24.09765625 C-7.50090797 28.32910621 -5.4289519 30.09738878 -1.328125 32.09765625 C1.34040796 32.45991306 3.81228929 32.69566056 6.484375 32.78515625 C7.17724609 32.81931641 7.87011719 32.85347656 8.58398438 32.88867188 C10.27940349 32.97051969 11.97560958 33.0357799 13.671875 33.09765625 C13.671875 36.39765625 13.671875 39.69765625 13.671875 43.09765625 C10.65006086 43.20633288 7.63221173 43.28528379 4.609375 43.34765625 C3.76181641 43.38117188 2.91425781 43.4146875 2.04101562 43.44921875 C-5.10474274 43.55957795 -9.22242524 42.04751445 -14.5078125 37.02734375 C-15.06726563 36.34929687 -15.62671875 35.67125 -16.203125 34.97265625 C-16.77804687 34.28945313 -17.35296875 33.60625 -17.9453125 32.90234375 C-21.98019879 27.6364752 -20.99879392 20.39555676 -20.328125 14.09765625 C-17.95070468 8.0924077 -13.99453245 4.05404275 -8.328125 1.09765625 C-5.48884149 0.22372333 -2.96364681 -0.02116891 0 0 Z " fill="#9F3835" transform="translate(485.328125,366.90234375)"/>
<path d="M0 0 C4.38773175 2.19386588 7.09334197 4.44520582 9 9 C9.53491853 13.20293133 9.30685774 15.39808674 7.375 19.1875 C3.83812594 23.37590349 1.00696671 25.71329047 -4.5 26.5 C-9.62182097 25.76831129 -12.53931703 23.70413013 -15.875 19.8125 C-17.86106569 14.84733577 -17.85375356 10.06698229 -15.8125 5.125 C-11.35973409 -0.09548417 -6.60449293 -1.04833221 0 0 Z " fill="#E4E4E4" transform="translate(217,443)"/>
<path d="M0 0 C4.12326498 1.7409341 6.69835882 4.16393137 9 8 C9.81972887 14.35289872 8.82138744 17.8712958 5 23 C1.52493641 25.58609383 -1.25358777 26.25346289 -5.5 26.125 C-10.14369807 25.44256464 -12.1544015 23.35289356 -14.90625 19.69140625 C-17.29213052 16.00181244 -17.36722354 13.40668244 -17 9 C-12.77520643 1.15395479 -8.71769336 -1.14048677 0 0 Z " fill="#E4E4E4" transform="translate(109,443)"/>
<path d="M0 0 C3.8026029 2.0050088 5.61790841 3.42686262 8 7 C8.64817054 11.34615406 9.00465176 15.9666809 7.01953125 19.984375 C3.6444964 24.17980294 0.85570312 25.79381076 -4.375 26.375 C-9.59965991 25.83451794 -12.44376871 23.7637288 -15.875 19.875 C-17.55938352 15.57046434 -17.8162039 11.55277036 -17 7 C-12.21778608 0.7960468 -7.57932368 -1.07352195 0 0 Z " fill="#E4E4E5" transform="translate(418,443)"/>
<path d="M0 0 C0.72590332 0.00249756 1.45180664 0.00499512 2.19970703 0.00756836 C3.12122559 0.01667236 4.04274414 0.02577637 4.9921875 0.03515625 C7.9209375 0.05578125 10.8496875 0.07640625 13.8671875 0.09765625 C13.8671875 7.35765625 13.8671875 14.61765625 13.8671875 22.09765625 C9.5978125 22.25234375 9.5978125 22.25234375 5.2421875 22.41015625 C3.91453369 22.47843628 3.91453369 22.47843628 2.56005859 22.5480957 C-1.59339901 22.62054517 -4.33979167 22.40907819 -7.65625 19.765625 C-10.55814267 16.63945356 -11.0329416 14.97984923 -11.5078125 10.78515625 C-11.01047179 5.89463924 -9.56196758 4.52681133 -6.1328125 1.09765625 C-3.8362755 -0.05061225 -2.54968083 -0.0179555 0 0 Z " fill="#FEE06D" transform="translate(486.1328125,376.90234375)"/>
<path d="M0 0 C1.9453125 -0.29296875 1.9453125 -0.29296875 4.125 -0.1875 C5.40375 -0.125625 6.6825 -0.06375 8 0 C-2.60333242 19.51825133 -13.5531234 38.825938 -24.82348633 57.96655273 C-25.58857652 59.28890928 -26.31677385 60.6335477 -27 62 C-29.64 62 -32.28 62 -35 62 C-33.5839494 58.21481268 -31.84578935 54.80250679 -29.83203125 51.30078125 C-29.19281738 50.18566162 -28.55360352 49.07054199 -27.89501953 47.92163086 C-27.20094934 46.71852782 -26.50677374 45.51548559 -25.8125 44.3125 C-25.09984447 43.07249248 -24.38744557 41.83233744 -23.67529297 40.59204102 C-21.82542619 37.3722389 -19.97146717 34.15481161 -18.11663818 30.93786621 C-16.65425349 28.39997532 -15.19485621 25.86037336 -13.73558044 23.32069397 C-12.03343608 20.35883288 -10.32926808 17.39813968 -8.625 14.4375 C-7.98925049 13.33253174 -7.35350098 12.22756348 -6.69848633 11.08911133 C-6.10962646 10.06841553 -5.5207666 9.04771973 -4.9140625 7.99609375 C-4.3979541 7.10075928 -3.8818457 6.2054248 -3.35009766 5.28295898 C-2.28866432 3.48811936 -1.15666497 1.73499745 0 0 Z " fill="#FCFDFE" transform="translate(414,295)"/>
<path d="M0 0 C7.80575195 -0.02312792 15.61149595 -0.04091738 23.41727352 -0.05181217 C27.0414596 -0.05704002 30.6656223 -0.06413587 34.28979492 -0.07543945 C37.78459975 -0.08627184 41.27938204 -0.09227758 44.77420235 -0.09487724 C46.76239389 -0.09763551 48.75057631 -0.10544688 50.73875427 -0.11329651 C51.93992386 -0.11337204 53.14109344 -0.11344757 54.37866211 -0.11352539 C55.97417152 -0.11685631 55.97417152 -0.11685631 57.60191345 -0.12025452 C60 0 60 0 61 1 C61.04063832 2.66617115 61.042721 4.33388095 61 6 C58.3756421 7.31217895 56.41933962 7.13427976 53.48046875 7.14526367 C52.32587158 7.15164352 51.17127441 7.15802338 49.98168945 7.16459656 C48.72960693 7.16570938 47.47752441 7.1668222 46.1875 7.16796875 C44.90770264 7.17129715 43.62790527 7.17462555 42.30932617 7.17805481 C39.59911251 7.18404544 36.88893075 7.18589473 34.17871094 7.18530273 C30.70153038 7.185201 27.22455349 7.19886523 23.74742126 7.21607494 C20.43577745 7.2298476 17.12417213 7.22928303 13.8125 7.23046875 C12.56041748 7.23765427 11.30833496 7.24483978 10.01831055 7.25224304 C8.86371338 7.24916641 7.70911621 7.24608978 6.51953125 7.24291992 C4.98969604 7.24505745 4.98969604 7.24505745 3.42895508 7.24723816 C1 7 1 7 -1 5 C-0.625 2.375 -0.625 2.375 0 0 Z " fill="#EEB156" transform="translate(193,300)"/>
<path d="M0 0 C1.17792114 -0.00315216 2.35584229 -0.00630432 3.56945801 -0.009552 C4.85171265 -0.00752777 6.13396729 -0.00550354 7.45507812 -0.00341797 C8.76085815 -0.00437469 10.06663818 -0.00533142 11.4119873 -0.00631714 C14.17945535 -0.0077938 16.94689116 -0.00564058 19.71435547 -0.00097656 C23.26895462 0.00472073 26.82347827 0.00144155 30.37807465 -0.00454903 C33.75791526 -0.00902294 37.13773536 -0.00589433 40.51757812 -0.00341797 C41.79983276 -0.0054422 43.0820874 -0.00746643 44.40319824 -0.009552 C46.17007996 -0.00482376 46.17007996 -0.00482376 47.97265625 0 C49.0155481 0.00079559 50.05843994 0.00159119 51.13293457 0.00241089 C53.48632812 0.12939453 53.48632812 0.12939453 54.48632812 1.12939453 C54.52696645 2.79556568 54.52904913 4.46327548 54.48632812 6.12939453 C51.86197023 7.44157348 49.90566775 7.26367429 46.96679688 7.2746582 C45.81219971 7.28103806 44.65760254 7.28741791 43.46801758 7.29399109 C42.21593506 7.29510391 40.96385254 7.29621674 39.67382812 7.29736328 C38.39403076 7.30069168 37.1142334 7.30402008 35.7956543 7.30744934 C33.08544064 7.31343997 30.37525887 7.31528926 27.66503906 7.31469727 C24.1878585 7.31459553 20.71088162 7.32825976 17.23374939 7.34546947 C13.92210558 7.35924214 10.61050026 7.35867756 7.29882812 7.35986328 C6.04674561 7.3670488 4.79466309 7.37423431 3.50463867 7.38163757 C2.3500415 7.37856094 1.19544434 7.37548431 0.00585938 7.37231445 C-1.52397583 7.37445198 -1.52397583 7.37445198 -3.0847168 7.37663269 C-5.51367188 7.12939453 -5.51367188 7.12939453 -7.51367188 5.12939453 C-6.70366658 -0.21664042 -5.10234532 0.00389244 0 0 Z " fill="#EDB055" transform="translate(199.513671875,331.87060546875)"/>
<path d="M0 0 C1.17792114 -0.00315216 2.35584229 -0.00630432 3.56945801 -0.009552 C4.85171265 -0.00752777 6.13396729 -0.00550354 7.45507812 -0.00341797 C8.76085815 -0.00437469 10.06663818 -0.00533142 11.4119873 -0.00631714 C14.17945535 -0.0077938 16.94689116 -0.00564058 19.71435547 -0.00097656 C23.26895462 0.00472073 26.82347827 0.00144155 30.37807465 -0.00454903 C33.75791526 -0.00902294 37.13773536 -0.00589433 40.51757812 -0.00341797 C41.79983276 -0.0054422 43.0820874 -0.00746643 44.40319824 -0.009552 C46.17007996 -0.00482376 46.17007996 -0.00482376 47.97265625 0 C49.0155481 0.00079559 50.05843994 0.00159119 51.13293457 0.00241089 C53.48632812 0.12939453 53.48632812 0.12939453 54.48632812 1.12939453 C54.52696645 2.79556568 54.52904913 4.46327548 54.48632812 6.12939453 C51.86197023 7.44157348 49.90566775 7.26367429 46.96679688 7.2746582 C45.81219971 7.28103806 44.65760254 7.28741791 43.46801758 7.29399109 C42.21593506 7.29510391 40.96385254 7.29621674 39.67382812 7.29736328 C38.39403076 7.30069168 37.1142334 7.30402008 35.7956543 7.30744934 C33.08544064 7.31343997 30.37525887 7.31528926 27.66503906 7.31469727 C24.1878585 7.31459553 20.71088162 7.32825976 17.23374939 7.34546947 C13.92210558 7.35924214 10.61050026 7.35867756 7.29882812 7.35986328 C6.04674561 7.3670488 4.79466309 7.37423431 3.50463867 7.38163757 C2.3500415 7.37856094 1.19544434 7.37548431 0.00585938 7.37231445 C-1.52397583 7.37445198 -1.52397583 7.37445198 -3.0847168 7.37663269 C-5.51367188 7.12939453 -5.51367188 7.12939453 -7.51367188 5.12939453 C-6.70366658 -0.21664042 -5.10234532 0.00389244 0 0 Z " fill="#EDB056" transform="translate(199.513671875,315.87060546875)"/>
<path d="M0 0 C2 1 2 1 2.61401367 2.6862793 C3.85205412 10.12029563 1.15499022 14.58648419 -2.6875 20.8125 C-3.27748779 21.80064697 -3.86747559 22.78879395 -4.4753418 23.80688477 C-5.7003925 25.85626559 -6.93363825 27.90076871 -8.17480469 29.94042969 C-9.94422244 32.90650022 -11.61269726 35.90887669 -13.2578125 38.9453125 C-14.27577959 40.77618741 -15.29399725 42.60692303 -16.3125 44.4375 C-16.7664917 45.30157471 -17.2204834 46.16564941 -17.68823242 47.0559082 C-18.98989233 49.32734089 -20.10579395 51.19149401 -22 53 C-24.9841602 53.73255637 -26.89404317 53.45607297 -30 53 C-26.00336146 45.62871929 -21.94323436 38.29693497 -17.8125 31 C-17.25731689 30.01829834 -16.70213379 29.03659668 -16.13012695 28.02514648 C-10.81683159 18.6465641 -5.42379602 9.31501641 0 0 Z " fill="#FCFDFE" transform="translate(432,304)"/>
<path d="M0 0 C1.01449219 -0.00386719 2.02898437 -0.00773437 3.07421875 -0.01171875 C4.13253906 -0.00011719 5.19085938 0.01148438 6.28125 0.0234375 C7.33957031 0.01183594 8.39789063 0.00023437 9.48828125 -0.01171875 C11.01001953 -0.00591797 11.01001953 -0.00591797 12.5625 0 C13.9556543 0.00507568 13.9556543 0.00507568 15.37695312 0.01025391 C17.78125 0.3984375 17.78125 0.3984375 19.58398438 1.73193359 C21.4359997 4.30979994 21.17329575 6.32741246 20.78125 9.3984375 C16.20859569 12.44687371 11.65910396 11.72731343 6.28125 11.7109375 C4.69376953 11.73510742 4.69376953 11.73510742 3.07421875 11.75976562 C2.05972656 11.76041016 1.04523438 11.76105469 0 11.76171875 C-1.3931543 11.76619019 -1.3931543 11.76619019 -2.81445312 11.77075195 C-5.65129188 11.33145676 -6.53917379 10.69004525 -8.21875 8.3984375 C-8.64182397 5.57794439 -8.73193944 4.0976895 -7.02148438 1.76708984 C-4.59713053 -0.07350166 -3.0246559 0.01101974 0 0 Z " fill="#A03735" transform="translate(368.21875,377.6015625)"/>
</svg>
